inDegrees=yes
name=ik_S57_A13_T01
DataType=double
version=3
OpenSimVersion=4.3-2021-08-27-4bc7ad9
endheader
time	pelvis_tilt	pelvis_list	pelvis_rotation	pelvis_tx	pelvis_ty	pelvis_tz	hip_flexion_r	hip_adduction_r	hip_rotation_r	knee_angle_r	knee_angle_r_beta	ankle_angle_r	subtalar_angle_r	mtp_angle_r	hip_flexion_l	hip_adduction_l	hip_rotation_l	knee_angle_l	knee_angle_l_beta	ankle_angle_l	subtalar_angle_l	mtp_angle_l	lumbar_extension	lumbar_bending	lumbar_rotation	arm_flex_r	arm_add_r	arm_rot_r	elbow_flex_r	pro_sup_r	wrist_flex_r	wrist_dev_r	arm_flex_l	arm_add_l	arm_rot_l	elbow_flex_l	pro_sup_l	wrist_flex_l	wrist_dev_l
11.17999999999985	3.198894183280285	1.113285530113427	22.1427625216014	0	0.9399999999999999	0	32.11238502436365	-9.539272831691074	-8.885501101041093	37.33879630195369	0.6516849342005747	0	0	0	32.11238502436365	-9.539272831691074	-8.885501101041093	37.33879630195369	0.6516849342005747	0	0	0	3.040708203619807	1.008028753653313	8.800681673845963	76.0713586221145	2.286557513346322	-17.08739977332007	125.040243467643	176.8415714134611	0	0	52.67447927850674	-40.70148022787019	43.30910463188313	7.400919090206185	135.7281878354771	0	0
11.19999999999985	3.219731007744653	1.086362312735411	22.65343038576496	0	0.9399999999999999	0	32.11801466849521	-9.539954178667369	-8.886559397950636	37.34421351265636	0.6517794823636106	0	0	0	32.11801466849521	-9.539954178667369	-8.886559397950636	37.34421351265636	0.6517794823636106	0	0	0	3.044904535211888	0.9721422849326778	8.587695161050068	76.03334704476939	3.285314496606046	-16.067872696285	119.738907132047	177.850379294499	0	0	52.56019293982537	-40.58095788009381	43.11615935155518	7.665475713415945	136.0081417043467	0	0
11.21999999999985	3.258038337129802	1.089071242818133	23.38235785178118	0	0.9399999999999999	0	32.12454668127545	-9.540742493192706	-8.887785323649258	37.35050917398666	0.6518893623824148	0	0	0	32.12454668127545	-9.540742493192706	-8.887785323649258	37.35050917398666	0.6518893623824148	0	0	0	3.076365663163389	0.9584463997146854	8.273322739586392	76.12676120880847	4.02636615930088	-15.49612534575776	112.221925508194	178.6349982648383	0	0	52.37619285609516	-40.32842828865922	42.95985417370115	7.421109963302102	136.367595103648	0	0
11.23999999999985	3.290057923786703	1.178526683954085	23.81791639262938	0	0.9399999999999999	0	32.3413500341792	-9.557991121397457	-8.919715667371635	37.61288542470662	0.6564686918365162	0	0	0	32.3413500341792	-9.557991121397457	-8.919715667371635	37.61288542470662	0.6564686918365162	0	0	0	3.160839399524258	0.9833728704791661	8.191074684981325	76.32207696153564	4.112145470701979	-15.27902856524193	102.8353450832019	179.2282930488008	0	0	52.17136896713606	-40.07189222864221	42.87975121196065	7.321661661314765	137.0695429105163	0	0
11.25999999999985	3.334134295324851	1.264921898465601	23.85524448088296	0	0.9399999999999999	0	32.5864074657245	-9.575310651788222	-8.953727541176601	37.91213230589907	0.6616915351896488	0	0	0	32.5864074657245	-9.575310651788222	-8.953727541176601	37.91213230589907	0.6616915351896488	0	0	0	3.227818901122906	1.038322892309234	8.152377752534365	77.05258153046327	3.847390124030812	-14.97058686091919	92.14299161710116	179.6659676026644	0	0	51.88770479052429	-40.06727028677411	42.72882767082916	7.102935518044511	137.4578414685045	0	0
11.27999999999985	3.378992016765503	1.359080757796314	22.6582591981482	0	0.9399999999999999	0	32.60891988656767	-9.577858510480144	-8.957801181899606	37.9341438104938	0.6620757084181447	0	0	0	32.60891988656767	-9.577858510480144	-8.957801181899606	37.9341438104938	0.6620757084181447	0	0	0	3.260399148160154	1.188129097188368	9.144461804287182	78.91279534410754	3.573268719084356	-14.09763560331344	81.38482343323186	179.854846158842	0	0	51.55582576348349	-40.17476646060165	42.56040698250059	6.802580234173916	137.6235058745469	0	0
11.29999999999985	3.636946939930233	1.206923896587096	22.04119634330674	0	0.9399999999999999	0	32.61496948600438	-9.578555707143593	-8.958907568495471	37.93999258696586	0.6621777888247953	0	0	0	32.61496948600438	-9.578555707143593	-8.958907568495471	37.93999258696586	0.6621777888247953	0	0	0	3.436983391579947	0.9668683294850363	9.479752174339012	78.65745375712029	2.891187568504498	-14.58007010140238	75.13569928614882	179.9279805383278	0	0	51.67375623429204	-40.73336828848591	43.17943709867039	6.399147526683374	138.0447212563884	0	0
11.31999999999985	3.926265734304461	0.8835612959350241	22.8920443959236	0	0.9399999999999999	0	32.74712154388798	-9.589376666206187	-8.978566889638278	38.10019248322662	0.6649738044758989	0	0	0	32.74712154388798	-9.589376666206187	-8.978566889638278	38.10019248322662	0.6649738044758989	0	0	0	3.593705844084175	0.574822646283441	9.983626251582912	81.3166507050887	2.685149904576929	-8.782302303663254	66.91848260635467	179.9348240854026	0	0	52.78796096003291	-40.11889092817547	45.13167546798962	6.279083536264773	138.3988398815069	0	0
11.33999999999985	3.908781056174523	0.8784181208545359	23.10226197476537	0	0.9399999999999999	0	32.89143489228054	-9.600559794449989	-8.999389589503712	38.27828461628728	0.6680820985697073	0	0	0	32.89143489228054	-9.600559794449989	-8.999389589503712	38.27828461628728	0.6680820985697073	0	0	0	3.606778376359053	0.5477764516426411	9.778993233707238	81.56808379888659	3.571183843731419	-2.563628913936082	61.49185638933305	178.8819554676222	0	0	52.9832003408592	-40.22932082191973	45.38660577237678	6.109443355140853	138.7703061872996	0	0
11.35999999999985	4.169246224411847	0.3785874681774956	25.80125317717399	0	0.9399999999999999	0	33.24026845995937	-9.627460748060274	-9.049499563980007	38.71178992398762	0.6756481935139493	0	0	0	33.24026845995937	-9.627460748060274	-9.049499563980007	38.71178992398762	0.6756481935139493	0	0	0	3.66051291395236	0.02723600886949231	9.847483324483917	80.89141146758554	0.2038760980687278	2.967810142282937	57.10041978144208	165.5913086780261	0	0	55.11123458446561	-38.53341115986202	48.50774908363204	6.134746218240031	138.9943032113017	0	0
11.37999999999985	4.581270198927809	0.05313658313367108	27.13275885505397	0	0.9399999999999999	0	33.42075636491423	-9.640615753818974	-9.074698767515461	38.9352267875415	0.6795479024532939	0	0	0	33.42075636491423	-9.640615753818974	-9.074698767515461	38.9352267875415	0.6795479024532939	0	0	0	3.825317258046743	-0.4296078455477895	10.44124268869387	79.39006795574565	0.1809506457580524	-7.787865158306585	60.97922804346929	173.4524837427992	0	0	55.77895164745145	-38.42326080399073	49.55392186814493	7.861977122843888	139.6544393222542	0	0
11.39999999999985	4.236444918674174	0.3702128812793326	26.39253137485638	0	0.9399999999999999	0	33.55718793957374	-9.650251225145773	-9.093485567164473	39.10165966564372	0.682452704159748	0	0	0	33.55718793957374	-9.650251225145773	-9.093485567164473	39.10165966564372	0.682452704159748	0	0	0	3.684181795394891	-0.05202397558591051	9.781322620197622	79.52423149080543	2.693277626406581	-16.98458379007233	64.26133381197728	179.8096242039662	0	0	54.44554708913749	-39.49534917171015	47.35975881591198	8.435445221152319	139.6773276641491	0	0
11.41999999999985	3.577538371471301	0.8415684686454957	24.51267200434443	0	0.9399999999999999	0	33.80664719403634	-9.667320338570244	-9.127177429651194	39.41151566695687	0.6878607115897264	0	0	0	33.80664719403634	-9.667320338570244	-9.127177429651194	39.41151566695687	0.6878607115897264	0	0	0	3.32251367162992	0.5662657869477711	8.527468695251967	79.61002246848601	6.406242058859128	-12.58543008008156	64.69016161018807	178.1132194107616	0	0	52.15918179436044	-41.58876421824354	43.51647049537637	8.808469699960442	139.4773892001392	0	0
